<svg xmlns="http://www.w3.org/2000/svg" xmlns:xlink="http://www.w3.org/1999/xlink" viewBox="0 0 1018.77 80.86"><defs><style>.cls-1,.cls-11,.cls-12,.cls-7{fill:none;}.cls-2{fill:#7eb7be;}.cls-3{fill:#c06c68;}.cls-4{clip-path:url(#clip-path);}.cls-17,.cls-5{fill:#fff;}.cls-11,.cls-5,.cls-7{stroke:#fff;}.cls-11,.cls-12,.cls-5,.cls-7{stroke-miterlimit:10;}.cls-5{stroke-width:0.48px;}.cls-6{fill:#5b5b5f;}.cls-7{stroke-width:4.81px;}.cls-8{fill:#f9f9f9;}.cls-9{fill:#ebeceb;}.cls-10{fill:#51a7b9;}.cls-11{stroke-width:1.17px;}.cls-12{stroke:#51a7b9;stroke-width:0.29px;}.cls-13{fill:#7aaab0;}.cls-14{fill:#959599;}.cls-15{fill:#57595b;}.cls-16{fill:#070804;}.cls-18{fill:#00264e;}.cls-19{fill:#c5cd27;}</style><clipPath id="clip-path"><circle class="cls-1" cx="115.62" cy="40.61" r="27.85"/></clipPath></defs><g id="Capa_2" data-name="Capa 2"><g id="Capa_1-2" data-name="Capa 1"><path class="cls-2" d="M11.53,48.78V23.71H0V18.4H28.38v5.31H16.84V48.78Z"/><path class="cls-2" d="M60.09,48.78,52.4,40.34H41V35.66H53.7a5.66,5.66,0,0,0,4.35-1.57,6.41,6.41,0,0,0,1.46-4.53A5.79,5.79,0,0,0,58,25.15a6,6,0,0,0-4.28-1.44H37.15V48.78H31.89V18.4H53.7a13.2,13.2,0,0,1,4.64.77A9.32,9.32,0,0,1,64,24.88a13.23,13.23,0,0,1,.75,4.59,11.6,11.6,0,0,1-1.65,6.38,9.28,9.28,0,0,1-4.62,3.7l9.16,9.23Z"/><path class="cls-2" d="M80.7,48.78V37.25L64.57,18.4h7.14l11.83,14,11.87-14h6.77L86,37.25V48.78Z"/><path class="cls-2" d="M115.94,25.76a14.46,14.46,0,1,1,.55,28.91,14.89,14.89,0,0,1-2.85-.25v7.37c1.15.08,2.3.09,3,.08a21.9,21.9,0,0,0,21.71-22.08,21.81,21.81,0,0,0-19.4-21.07L113.64,26A15.71,15.71,0,0,1,115.94,25.76Z"/><path class="cls-3" d="M7.07,61.62a4.34,4.34,0,0,1-1.81-.37,4.38,4.38,0,0,1-2.4-2.52,5.17,5.17,0,0,1-.35-1.9A5,5,0,0,1,2.86,55a4,4,0,0,1,1-1.45,4.3,4.3,0,0,1,1.45-.93,4.86,4.86,0,0,1,1.81-.33h5.08v1.64H7.07a3,3,0,0,0-1.17.22,2.69,2.69,0,0,0-.92.63,2.93,2.93,0,0,0-.61,1,3.45,3.45,0,0,0-.22,1.23,3.53,3.53,0,0,0,.22,1.23,3,3,0,0,0,.61,1,2.87,2.87,0,0,0,.92.64A3,3,0,0,0,7.07,60h5.08v1.64Z"/><path class="cls-3" d="M17.77,61.62A4.31,4.31,0,0,1,16,61.25a4.48,4.48,0,0,1-1.45-1,4.68,4.68,0,0,1-1-1.52,5.38,5.38,0,0,1-.34-1.9A5.16,5.16,0,0,1,13.55,55a4.18,4.18,0,0,1,1-1.45A4.3,4.3,0,0,1,16,52.57a4.82,4.82,0,0,1,1.81-.33h2.28a5.14,5.14,0,0,1,1.87.33,4.35,4.35,0,0,1,1.45,1A4.13,4.13,0,0,1,24.31,55a4.85,4.85,0,0,1,.34,1.86,5.38,5.38,0,0,1-.34,1.9,4.68,4.68,0,0,1-1,1.52,4.52,4.52,0,0,1-3.3,1.37ZM20.05,60a2.91,2.91,0,0,0,2.13-.87,3,3,0,0,0,.61-1A3.53,3.53,0,0,0,23,56.91a3.44,3.44,0,0,0-.22-1.22,3,3,0,0,0-.61-1,2.88,2.88,0,0,0-.94-.63,3.07,3.07,0,0,0-1.19-.22H17.77a3,3,0,0,0-1.17.22,2.69,2.69,0,0,0-.92.63,2.93,2.93,0,0,0-.61,1,3.24,3.24,0,0,0-.22,1.23,3.32,3.32,0,0,0,.22,1.23,3,3,0,0,0,.61,1,2.87,2.87,0,0,0,.92.64,3,3,0,0,0,1.17.23Z"/><path class="cls-3" d="M27.5,54.75v6.87H25.94V53.1a1,1,0,0,1,.22-.71.77.77,0,0,1,.62-.27.81.81,0,0,1,.34.08,1.13,1.13,0,0,1,.35.26L34.09,59V52.16h1.57v8.6a1.05,1.05,0,0,1-.23.72.76.76,0,0,1-.59.26,1.09,1.09,0,0,1-.75-.35Z"/><path class="cls-3" d="M40.25,61.62V53.88H36.69V52.24h8.76v1.64H41.89v7.74Z"/><path class="cls-3" d="M55.25,61.62,52.87,59H49.36V57.57h3.91a1.71,1.71,0,0,0,1.34-.49,1.92,1.92,0,0,0,.46-1.4,1.77,1.77,0,0,0-.48-1.36,1.82,1.82,0,0,0-1.32-.44H48.16v7.74H46.54V52.24h6.73a4,4,0,0,1,1.43.24,2.93,2.93,0,0,1,1.08.68,3.13,3.13,0,0,1,.67,1.08,4.19,4.19,0,0,1,.23,1.42,3.59,3.59,0,0,1-.51,2,2.9,2.9,0,0,1-1.43,1.14l2.83,2.85Z"/><path class="cls-3" d="M62.49,61.62a4.39,4.39,0,0,1-1.82-.37,4.54,4.54,0,0,1-1.44-1,4.68,4.68,0,0,1-1-1.52,5.17,5.17,0,0,1-.34-1.9A5,5,0,0,1,58.27,55a4.18,4.18,0,0,1,1-1.45,4.35,4.35,0,0,1,1.44-.93,4.91,4.91,0,0,1,1.82-.33h2.28a5.14,5.14,0,0,1,1.87.33,4.35,4.35,0,0,1,1.45,1A4.13,4.13,0,0,1,69,55a5,5,0,0,1,.34,1.86,5.17,5.17,0,0,1-.35,1.9,4.47,4.47,0,0,1-4.25,2.89ZM64.77,60A3.08,3.08,0,0,0,66,59.75a2.91,2.91,0,0,0,.93-.64,2.88,2.88,0,0,0,.62-1,3.53,3.53,0,0,0,.22-1.23,3.44,3.44,0,0,0-.22-1.22,2.84,2.84,0,0,0-.62-1A2.73,2.73,0,0,0,66,54.1a3.07,3.07,0,0,0-1.19-.22H62.49a3,3,0,0,0-1.17.22,2.6,2.6,0,0,0-.92.63,2.93,2.93,0,0,0-.61,1,3.24,3.24,0,0,0-.22,1.23,3.32,3.32,0,0,0,.22,1.23,3,3,0,0,0,.61,1,2.76,2.76,0,0,0,.92.64,3,3,0,0,0,1.17.23Z"/><path class="cls-3" d="M70.69,61.62V52.24h1.64V60h6.31v1.64Z"/><path class="cls-3" d="M79.82,61.62V52.24h1.64V60h6.31v1.64Z"/><path class="cls-3" d="M88.94,61.62V52.24h8.38v1.64H90.57V60h6.76v1.64Zm2.83-4.08V56.16H97v1.38Z"/><path class="cls-3" d="M107.45,61.62,105.08,59h-3.52V57.57h3.92a1.72,1.72,0,0,0,1.34-.49,2,2,0,0,0,.45-1.4,1.81,1.81,0,0,0-.47-1.36,1.85,1.85,0,0,0-1.32-.44h-5.12v7.74H98.74V52.24h6.74a4,4,0,0,1,1.43.24,2.89,2.89,0,0,1,1.07.68,3,3,0,0,1,.67,1.08,4,4,0,0,1,.23,1.42,3.59,3.59,0,0,1-.51,2A2.87,2.87,0,0,1,107,58.77l2.82,2.85Z"/><g class="cls-4"><path class="cls-5" d="M95.83,31.41A21.72,21.72,0,0,0,94,33.12a1.15,1.15,0,0,0-.21,1.57L101.08,44a2.28,2.28,0,0,0,3.3.07l27.36-27.37L126.28,13,102.36,37.84l-4.83-6.26A1.21,1.21,0,0,0,95.83,31.41Z"/><path class="cls-3" d="M94.57,30.78a23.43,23.43,0,0,0-1.83,1.71,1.16,1.16,0,0,0-.21,1.57l7.29,9.29a2.27,2.27,0,0,0,3.3.07l27.36-27.37L125,12.33,101.1,37.21,96.28,31A1.22,1.22,0,0,0,94.57,30.78Z"/></g><circle class="cls-2" cx="116.27" cy="40.33" r="5.23"/><path class="cls-2" d="M388.66,42.92V24h-8.73v-4H401.4v4h-8.73v19Z"/><path class="cls-2" d="M425.4,42.92l-5.82-6.39H411V33h9.58a4.3,4.3,0,0,0,3.29-1.18,4.9,4.9,0,0,0,1.1-3.44A4.38,4.38,0,0,0,423.8,25,4.52,4.52,0,0,0,420.56,24H408v19h-4v-23h16.51a9.94,9.94,0,0,1,3.51.59,7.05,7.05,0,0,1,4.27,4.31,10.08,10.08,0,0,1,.57,3.48,8.75,8.75,0,0,1-1.25,4.82,7,7,0,0,1-3.5,2.8l6.93,7Z"/><path class="cls-2" d="M441,42.92V34.19l-12.2-14.26h5.41l8.94,10.6,9-10.6h5.13L445,34.19v8.73Z"/><circle class="cls-2" cx="442.62" cy="14.97" r="3.43"/><path class="cls-6" d="M433.06,15.19a9.49,9.49,0,1,1,19-.37,9.74,9.74,0,0,1-.17,1.88h4.84c.06-.76.06-1.52.05-2a14.21,14.21,0,1,0-28.41.55c0,.37,0,.88.06,1.42h4.82A10.89,10.89,0,0,1,433.06,15.19Z"/><path class="cls-6" d="M427.69,45v5.23h-38.2V64.86h27V60H397.6V55.11h26.32v11.7q0,3.22-3.24,3.23H384.93a3.77,3.77,0,0,1-2.11-.82,3.58,3.58,0,0,1-1.13-3.08V48.91a4,4,0,0,1,1-2.73A3.58,3.58,0,0,1,385.59,45Z"/><path class="cls-6" d="M466.18,46.14a4.2,4.2,0,0,1,1,2.77v7.17A3.71,3.71,0,0,1,466,59a3.59,3.59,0,0,1-2.14,1H436V70h-7.48V54.76h31.19V50.2H429.49V45h33.77A3.67,3.67,0,0,1,466.18,46.14Z"/><path class="cls-6" d="M511.15,45V50.2H476.9v4.56h30.88V66.14a4.19,4.19,0,0,1-1,2.93,4,4,0,0,1-2.93,1H469.1V64.86h31.19V60H469.1V48.91a4,4,0,0,1,1-2.77A3.65,3.65,0,0,1,473,45Z"/><path class="cls-7" d="M201.22,26V8.62h-7.73V5h19V8.62h-7.74V26Z"/><path class="cls-7" d="M233.79,26l-5.16-5.84H221V16.88h8.49c2.55,0,3.89-1.5,3.89-4.22s-1.45-4-3.89-4H218.4V26h-3.53V5H229.5c4.65,0,7.4,3,7.4,7.65,0,3.47-1.57,5.92-4.21,7L238.83,26Z"/><path class="cls-7" d="M247.6,26V18L236.78,5h4.8l7.93,9.68,8-9.68H262L251.16,18v8Z"/><path class="cls-7" d="M200.22,55.33V40.8h-6.49V37.72h16V40.8H203.2V55.33Z"/><path class="cls-7" d="M211.82,55.33V37.72h3V55.33Z"/><path class="cls-7" d="M217.93,55.33V37.72h15.25V40.8H220.89V52.25h12.32v3.08Zm5.15-7.66V45.08h9.47v2.59Z"/><path class="cls-7" d="M238.54,42.44V55.33H235.7v-16c0-1.13.58-1.84,1.52-1.84a1.69,1.69,0,0,1,1.27.63l12.06,12.33V37.58h2.84V53.7c0,1.17-.61,1.84-1.48,1.84a1.85,1.85,0,0,1-1.36-.65Z"/><path class="cls-7" d="M256.28,55.33V37.72h9.89c4.82,0,8.32,3.51,8.32,8.62s-3.5,9-8.32,9Zm9.89-3.08c3.08,0,5.34-2.45,5.34-5.76s-2.26-5.69-5.34-5.69h-6.93V52.25Z"/><path class="cls-7" d="M292.47,55.33l-2.57-4.44h-8.08l1.41-2.49h5.24l-3.81-6.59-7.75,13.52H273.5l9.82-16.86a1.68,1.68,0,0,1,1.46-1,1.63,1.63,0,0,1,1.43,1l9.85,16.86Z"/><path class="cls-7" d="M297.89,55.33V52.25H310.7a2.21,2.21,0,0,0,2.49-2.3c0-1.5-.89-2.28-2.49-2.28h-7.85a4.84,4.84,0,0,1-5.22-5c0-2.83,1.86-4.94,5.27-4.94h12.26V40.8H302.9a2.14,2.14,0,1,0,0,4.28h7.83c3.45,0,5.31,1.67,5.31,5.09,0,2.95-1.74,5.16-5.31,5.16Z"/><polygon class="cls-7" points="319 67.74 322.96 71.56 322.96 2.4 317.5 2.4 319 67.74"/><path class="cls-7" d="M302.05,21.82c0,3.44-3.12,6.22-7,6.22h0c-3.84,0-7-2.78-7-6.22V2.4h13.94Z"/><path class="cls-7" d="M329.93,21.82c0,3.44-3.12,6.22-7,6.22h0c-3.85,0-7-2.78-7-6.22L313,2.4h10.17Z"/><path class="cls-7" d="M316,21.82c0,3.44-3.12,6.22-7,6.22h0c-3.85,0-7-2.78-7-6.22V2.4H313Z"/><path class="cls-7" d="M309,28c3.85,0,7-2.78,7-6.22H302.05C302.05,25.26,305.17,28,309,28Z"/><path class="cls-7" d="M295.08,28c3.85,0,7-2.78,7-6.22H288.11C288.11,25.26,291.24,28,295.08,28Z"/><path class="cls-7" d="M323,28c3.85,0,6.13-2.49,6.13-5.93L316,21.82C316,25.26,319.11,28,323,28Z"/><path class="cls-7" d="M260.24,21.82c0,3.44,3.12,6.22,7,6.22h0c3.85,0,7-2.78,7-6.22l3-19.42H267Z"/><path class="cls-7" d="M274.18,21.82c0,3.44,3.12,6.22,7,6.22h0c3.85,0,7-2.78,7-6.22V2.4H277.19Z"/><path class="cls-7" d="M281.15,28c-3.85,0-7-2.78-7-6.22h13.93C288.11,25.26,285,28,281.15,28Z"/><path class="cls-7" d="M267.21,28c-3.85,0-5.41-2.78-5.41-6.22h12.38C274.18,25.26,271.06,28,267.21,28Z"/><polygon class="cls-7" points="320.16 72.44 283.61 72.44 282.77 63.81 316.2 68.62 320.16 72.44"/><path class="cls-7" d="M310.59,63.62A1.26,1.26,0,0,1,312,62.15l5.72,1,5.12.93a1.28,1.28,0,0,1,.66,2.14L319,70.86l-4.46,4.6a1.21,1.21,0,0,1-2.07-.67l-.91-5.28Z"/><path class="cls-7" d="M323.38,78,317.1,72.1a1.61,1.61,0,0,1-.09-2.24l1.26-1.42a1.5,1.5,0,0,1,2.17-.09l6.28,5.93a1.61,1.61,0,0,1,.09,2.24l-1.26,1.42A1.5,1.5,0,0,1,323.38,78Z"/><path class="cls-7" d="M310.51,63.62a1.25,1.25,0,0,1,1.42-1.47l5.72,1,5.12.93a1.28,1.28,0,0,1,.66,2.14L319,70.86l-4.46,4.6a1.21,1.21,0,0,1-2.07-.67l-.91-5.28Z"/><path class="cls-7" d="M323.3,78,317,72.1a1.61,1.61,0,0,1-.09-2.24l1.26-1.42a1.5,1.5,0,0,1,2.17-.09l6.28,5.93a1.61,1.61,0,0,1,.09,2.24l-1.26,1.42A1.5,1.5,0,0,1,323.3,78Z"/><path class="cls-7" d="M302.05,21.82c0,3.44-3.12,6.22-7,6.22h0c-3.85,0-7-2.78-7-6.22V2.4h13.94Z"/><path class="cls-7" d="M329.93,21.82c0,3.44-3.12,6.22-7,6.22h0c-3.85,0-7-2.78-7-6.22L313,2.4h10.17Z"/><path class="cls-7" d="M316,21.82c0,3.44-3.12,6.22-7,6.22h0c-3.85,0-7-2.78-7-6.22V2.4H313Z"/><path class="cls-7" d="M260.24,21.82c0,3.44,3.12,6.22,7,6.22h0c3.85,0,7-2.78,7-6.22l3-19.42H267Z"/><path class="cls-7" d="M274.18,21.82c0,3.44,3.12,6.22,7,6.22h0c3.84,0,7-2.78,7-6.22V2.4H277.19Z"/><path class="cls-2" d="M201.2,26.32V9h-7.74V5.32h19V9h-7.73V26.32Z"/><path class="cls-2" d="M233.77,26.32l-5.16-5.84H221V17.25h8.49c2.55,0,3.89-1.51,3.89-4.22s-1.45-4-3.89-4h-11.1V26.32h-3.53v-21h14.63c4.65,0,7.4,3,7.4,7.65,0,3.47-1.57,5.92-4.21,7l6.14,6.39Z"/><path class="cls-2" d="M247.58,26.32v-8l-10.82-13h4.79L249.49,15l8-9.67H262l-10.85,13v8Z"/><path class="cls-3" d="M200.19,55.69V41.17h-6.48V38.09h15.95v3.08h-6.48V55.69Z"/><path class="cls-3" d="M211.8,55.69V38.09h3v17.6Z"/><path class="cls-3" d="M217.91,55.69V38.09h15.25v3.08H220.87V52.62h12.31v3.07ZM223.06,48V45.45h9.47V48Z"/><path class="cls-3" d="M238.52,42.81V55.69h-2.85v-16c0-1.14.59-1.84,1.53-1.84a1.69,1.69,0,0,1,1.27.63l12.05,12.33V37.94h2.85V54.07c0,1.16-.61,1.84-1.48,1.84a1.9,1.9,0,0,1-1.37-.65Z"/><path class="cls-3" d="M256.26,55.69V38.09h9.89c4.82,0,8.32,3.51,8.32,8.62s-3.5,9-8.32,9Zm9.89-3.07c3.08,0,5.33-2.45,5.33-5.76s-2.25-5.69-5.33-5.69h-6.93V52.62Z"/><path class="cls-3" d="M292.44,55.69l-2.56-4.43H281.8l1.41-2.49h5.24l-3.81-6.59-7.75,13.51h-3.41l9.82-16.85a1.68,1.68,0,0,1,1.46-1,1.63,1.63,0,0,1,1.43,1L296,55.69Z"/><path class="cls-3" d="M297.87,55.69V52.62h12.81a2.21,2.21,0,0,0,2.49-2.3c0-1.5-.89-2.28-2.49-2.28h-7.85a4.84,4.84,0,0,1-5.22-5c0-2.83,1.86-4.94,5.27-4.94h12.26v3.08H302.88a2.14,2.14,0,1,0,0,4.28h7.83c3.45,0,5.31,1.67,5.31,5.09,0,3-1.74,5.15-5.31,5.15Z"/><polygon class="cls-3" points="318.98 68.11 322.94 71.93 322.94 2.77 317.47 2.77 318.98 68.11"/><path class="cls-2" d="M302,22.19c0,3.43-3.12,6.22-7,6.22h0c-3.85,0-7-2.79-7-6.22V2.77H302Z"/><path class="cls-2" d="M329.91,22.19c0,3.43-3.12,6.22-7,6.22h0c-3.85,0-7-2.79-7-6.22L313,2.77h10.17Z"/><path class="cls-8" d="M316,22.19c0,3.43-3.12,6.22-7,6.22h0c-3.85,0-7-2.79-7-6.22V2.77H313Z"/><path class="cls-9" d="M309,28.41c3.85,0,7-2.79,7-6.22H302C302,25.62,305.15,28.41,309,28.41Z"/><path class="cls-10" d="M295.06,28.41c3.85,0,7-2.79,7-6.22H288.09C288.09,25.62,291.21,28.41,295.06,28.41Z"/><path class="cls-10" d="M322.94,28.41c3.85,0,7-2.79,7-6.22H316C316,25.62,319.09,28.41,322.94,28.41Z"/><path class="cls-2" d="M260.22,22.19c0,3.43,3.12,6.22,7,6.22h0c3.85,0,7-2.79,7-6.22l3-19.42H267Z"/><path class="cls-8" d="M274.16,22.19c0,3.43,3.12,6.22,7,6.22h0c3.84,0,7-2.79,7-6.22V2.77H277.17Z"/><path class="cls-9" d="M281.13,28.41c-3.85,0-7-2.79-7-6.22h13.93C288.09,25.62,285,28.41,281.13,28.41Z"/><path class="cls-10" d="M267.19,28.41c-3.85,0-7-2.79-7-6.22h13.94C274.16,25.62,271,28.41,267.19,28.41Z"/><polygon class="cls-3" points="320.14 72.81 283.59 72.81 282.75 64.17 316.18 68.99 320.14 72.81"/><path class="cls-11" d="M310.57,64A1.25,1.25,0,0,1,312,62.52l5.72,1,5.12.93a1.28,1.28,0,0,1,.66,2.14L319,71.23l-4.46,4.6a1.21,1.21,0,0,1-2.07-.67l-.91-5.28Z"/><path class="cls-11" d="M323.36,78.4l-6.28-5.93a1.62,1.62,0,0,1-.1-2.24l1.27-1.42a1.51,1.51,0,0,1,2.17-.1l6.28,5.94a1.61,1.61,0,0,1,.09,2.24l-1.26,1.42A1.5,1.5,0,0,1,323.36,78.4Z"/><path class="cls-2" d="M310.49,64a1.25,1.25,0,0,1,1.42-1.47l5.72,1,5.12.93a1.28,1.28,0,0,1,.66,2.14l-4.47,4.6-4.46,4.6a1.21,1.21,0,0,1-2.07-.67l-.91-5.28Z"/><path class="cls-2" d="M323.28,78.4,317,72.47a1.62,1.62,0,0,1-.1-2.24l1.27-1.42a1.51,1.51,0,0,1,2.17-.1l6.28,5.94a1.62,1.62,0,0,1,.09,2.24l-1.26,1.42A1.5,1.5,0,0,1,323.28,78.4Z"/><path class="cls-12" d="M302,22.19c0,3.43-3.12,6.22-7,6.22h0c-3.85,0-7-2.79-7-6.22V2.77H302Z"/><path class="cls-12" d="M329.91,22.19c0,3.43-3.13,6.22-7,6.22h0c-3.85,0-7-2.79-7-6.22L313,2.77h10.17Z"/><path class="cls-12" d="M316,22.19c0,3.43-3.12,6.22-7,6.22h0c-3.85,0-7-2.79-7-6.22V2.77H313Z"/><path class="cls-12" d="M260.22,22.19c0,3.43,3.12,6.22,7,6.22h0c3.85,0,7-2.79,7-6.22l3-19.42H267Z"/><path class="cls-12" d="M274.16,22.19c0,3.43,3.12,6.22,7,6.22h0c3.85,0,7-2.79,7-6.22V2.77H277.17Z"/><path class="cls-13" d="M587.76,11.14a8.21,8.21,0,0,1,5,.67l5.33,2.85a2.34,2.34,0,0,1,1.37,1.86,2.33,2.33,0,0,1-1.32,1.91c-1.76,1-3.52,2-5.29,3a5.19,5.19,0,0,0-2.16,1.83,2.38,2.38,0,0,0-.15,2.24,4.17,4.17,0,0,0,1.79,1.81q2.92,1.54,5.83,3.11a2.71,2.71,0,0,1,1.41,1.49,1.74,1.74,0,0,1-.34,1.55,3.47,3.47,0,0,1-1,.86l-3.89,2.18a11.22,11.22,0,0,1-2.85,1.33,8.23,8.23,0,0,1-6-.74l-4.91-2.62a3,3,0,0,1-1.27-1.23,1.68,1.68,0,0,1,.18-1.7,3.51,3.51,0,0,1,1.26-1c1.85-1,3.69-2.08,5.55-3.1a4.08,4.08,0,0,0,1.89-2.12,2.41,2.41,0,0,0-.26-2,4.63,4.63,0,0,0-1.65-1.52l-5.84-3.11a2.44,2.44,0,0,1-1.45-1.85,2.32,2.32,0,0,1,1.32-2l5.35-3a6.56,6.56,0,0,1,2.15-.71"/><path class="cls-14" d="M613.68,43.41a2.08,2.08,0,0,1,1.92.26,2.6,2.6,0,0,1,.8,2.07c0,2.12,0,4.24-.08,6.37a8.1,8.1,0,0,1-1.9,4.44A6.71,6.71,0,0,1,612.7,58l-5.24,3a2.7,2.7,0,0,1-2.29.34A2.15,2.15,0,0,1,604,59.54c-.1-1,0-1.92,0-2.88,0-1.32,0-2.65.06-4a8,8,0,0,1,1.83-4.38,6.51,6.51,0,0,1,1.81-1.58l5.13-2.93a4,4,0,0,1,.87-.39"/><path class="cls-13" d="M602.27,18.88a8.14,8.14,0,0,1,5.31.82l4.93,2.63a3,3,0,0,1,1.29,1.16,1.64,1.64,0,0,1,.06,1.48,3,3,0,0,1-1.33,1.29l-5,2.82a7.75,7.75,0,0,1-4.12.92,7.4,7.4,0,0,1-3.23-.79c-1.77-.94-3.55-1.88-5.31-2.83a2.37,2.37,0,0,1-1.38-1.8,2.25,2.25,0,0,1,1.3-2c1.76-1,3.53-2,5.29-3a6.65,6.65,0,0,1,2.21-.75"/><path class="cls-14" d="M599.78,35a1.92,1.92,0,0,1,1.68.4,2.67,2.67,0,0,1,.73,2c0,2.09-.05,4.18-.08,6.28a7.65,7.65,0,0,1-1.24,3.61,7.21,7.21,0,0,1-2.51,2.46l-4.56,2.6a4.71,4.71,0,0,1-1.82.76,1.81,1.81,0,0,1-1.68-.6,3.13,3.13,0,0,1-.56-2.08c0-1.86,0-3.71.08-5.56a6.29,6.29,0,0,1,.42-2.43,8,8,0,0,1,3.09-4c1.47-.85,2.95-1.68,4.41-2.53a7.18,7.18,0,0,1,2-1"/><path class="cls-15" d="M563.31,43.21a2.47,2.47,0,0,1,1.88.51c1.5,1.05,3,2.09,4.55,3.09a8.6,8.6,0,0,1,3.58,4.76,12.83,12.83,0,0,1,.39,3.21c.08,1.4.2,2.79.32,4.18a2.77,2.77,0,0,1-.32,1.79,1.24,1.24,0,0,1-1.19.53,3.36,3.36,0,0,1-1.58-.66c-1.51-1-3-2-4.59-2.87A7.66,7.66,0,0,1,562.7,53a11.48,11.48,0,0,1-.23-3.21c0-1.56-.13-3.11-.2-4.67,0-.75.22-1.7,1-1.93"/><path class="cls-13" d="M573.45,19.18a8.28,8.28,0,0,1,4.84.6q2.73,1.44,5.44,2.9a2.39,2.39,0,0,1,1.42,1.89,2.41,2.41,0,0,1-1.36,1.93l-5.23,2.93a7.32,7.32,0,0,1-3.27.87,7.73,7.73,0,0,1-4-.81c-1.71-.9-3.42-1.82-5.13-2.73a3.27,3.27,0,0,1-1.27-1.09,1.67,1.67,0,0,1,0-1.74,3.12,3.12,0,0,1,1.24-1.12l5.21-2.93a6.9,6.9,0,0,1,2.17-.7"/><path class="cls-13" d="M655.05,32.87h0a4,4,0,0,0-.34,1.93V46.21h7.63a5.14,5.14,0,0,0,2.09-.35,1.6,1.6,0,0,0,.74-.78,6.35,6.35,0,0,0,.44-3V31.2c-2.68,0-5.36,0-8,0a2.84,2.84,0,0,0-2.52,1.66m-6.5-7.08A8,8,0,0,1,654.48,23q9.64,0,19.28,0V46.33a8.16,8.16,0,0,1-8.14,8.07H646.56V30.92A8.29,8.29,0,0,1,648.55,25.79Z"/><path class="cls-13" d="M750,31.8h0a3.28,3.28,0,0,0-1.19,2.51c0,4,0,7.93,0,11.9h7.64a4.68,4.68,0,0,0,2.16-.4,2.51,2.51,0,0,0,1-1.75,27,27,0,0,0,.11-3.6V31.2h-7.82a3,3,0,0,0-1.9.6m-7-6.39a8,8,0,0,1,4.82-2.4,13.73,13.73,0,0,1,1.7-.06h18.36V44.35c0,.92,0,1.84-.06,2.76a8.16,8.16,0,0,1-8.16,7.29h-19V32.52a17.24,17.24,0,0,1,.09-2.69A8.45,8.45,0,0,1,743,25.41Z"/><path class="cls-14" d="M614.18,26.72a1.87,1.87,0,0,1,1.7.38,2.54,2.54,0,0,1,.74,1.94c0,1.63,0,3.25,0,4.87a11.93,11.93,0,0,1-.2,2.67,8.18,8.18,0,0,1-3.22,4.68c-1.79,1-3.59,2.06-5.39,3.09a10.24,10.24,0,0,0-3.54,3.2,12.41,12.41,0,0,0-2.16,5.13A32.68,32.68,0,0,0,602,56c0,1.26,0,2.52-.05,3.78a7.85,7.85,0,0,1-2.28,5.46,11.1,11.1,0,0,1-2.77,1.88c-1.31.75-2.62,1.51-3.94,2.25a2.41,2.41,0,0,1-2.48.1,2.59,2.59,0,0,1-.91-2.23q0-3.09.08-6.18a7.82,7.82,0,0,1,1.64-4.2,6.5,6.5,0,0,1,2-1.84l5-2.86a11.4,11.4,0,0,0,5-5.63,10.32,10.32,0,0,0,.91-3.62q0-3.43.09-6.89a8.18,8.18,0,0,1,2.53-5,10.27,10.27,0,0,1,2.15-1.42l4.18-2.39a3.7,3.7,0,0,1,1.06-.41"/><path class="cls-15" d="M577.43,35.07a2.94,2.94,0,0,1,2.22.34l5.19,2.83a7.19,7.19,0,0,1,3.07,3.31,6.77,6.77,0,0,1,.71,2.89c0,1.86-.08,3.71-.14,5.57a4.69,4.69,0,0,1-.33,2.1,2,2,0,0,1-1.42,1.15,3.08,3.08,0,0,1-2.07-.41l-4.36-2.38a9.42,9.42,0,0,1-2.07-1.31,7.51,7.51,0,0,1-2.49-5.81c.06-2,.09-4,.15-6a2.44,2.44,0,0,1,1.54-2.3"/><path class="cls-16" d="M623.48,24.88A8.1,8.1,0,0,1,628.55,23c5.47,0,10.93,0,16.39,0v8.2H631.62A2.63,2.63,0,0,0,628.75,34h16.14c0,4.06,0,8.11,0,12.16a8.2,8.2,0,0,1-4.75,7.51,7.84,7.84,0,0,1-2.64.71c-.73.07-1.46,0-2.2,0H620.6V46.16H633A5.91,5.91,0,0,0,634.7,46a2.78,2.78,0,0,0,1.39-1.07,4.42,4.42,0,0,0,.66-2.76H620.6V33.11a17.57,17.57,0,0,1,.2-3.77,8.32,8.32,0,0,1,2.68-4.46"/><path class="cls-16" d="M675.5,54.41V23h8.2V54.41h-8.2"/><path class="cls-16" d="M685.54,54.41V23h17.93a14.08,14.08,0,0,1,2.43.11,8.16,8.16,0,0,1,6.84,8V54.4h-8.15V34.31a3.39,3.39,0,0,0-1-2.52,3.25,3.25,0,0,0-2.24-.64h-7.69c0,7.75,0,15.5,0,23.26h-8.14"/><path class="cls-16" d="M716.81,25.38a8,8,0,0,1,4.47-2.33,14.2,14.2,0,0,1,2.26-.1h15.31V31.2H725.73a3,3,0,0,0-2,.63,3.32,3.32,0,0,0-1.15,2.58v11.8h16.25v8.2h-24.4V30.93a8.38,8.38,0,0,1,2.36-5.55"/><path class="cls-15" d="M562.81,26.92a3.2,3.2,0,0,1,2.15.49l4.45,2.42a9,9,0,0,1,1.72,1.08,7.9,7.9,0,0,1,2.54,4.38,9.5,9.5,0,0,1,.07,2.2c0,1.89-.09,3.78-.15,5.66a11.49,11.49,0,0,0,4.7,8.62c.48.34,1,.58,1.53.87l3.65,2a9.92,9.92,0,0,1,2.36,1.52A7.52,7.52,0,0,1,588.18,62c0,1.59-.08,3.18-.11,4.77a6.23,6.23,0,0,1-.22,1.93,2.07,2.07,0,0,1-1.45,1.42,2.72,2.72,0,0,1-2-.44c-1.75-1.07-3.46-2.2-5.15-3.38a9.62,9.62,0,0,1-3-4.53,12.06,12.06,0,0,1-.42-2.94c-.11-1.66-.2-3.33-.21-5a11,11,0,0,0-1.26-4.38,11.16,11.16,0,0,0-4.5-4.87c-1.65-1-3.26-2.08-4.85-3.18a8.45,8.45,0,0,1-2.27-2.6,8.56,8.56,0,0,1-1.23-3.55c-.16-2-.29-4-.32-5.95a2.77,2.77,0,0,1,.49-1.72,1.91,1.91,0,0,1,1.17-.7"/><path class="cls-14" d="M627.61,63.07a2.11,2.11,0,0,0,1.08.31c.61,0,1-.33,1-.8s-.25-.68-.87-.92-1.23-.66-1.23-1.32a1.34,1.34,0,0,1,1.5-1.26,2.08,2.08,0,0,1,1,.23l-.17.49a1.87,1.87,0,0,0-.88-.22c-.63,0-.87.38-.87.69s.28.65.92.9,1.19.68,1.19,1.37-.54,1.33-1.63,1.33a2.48,2.48,0,0,1-1.19-.29Z"/><path class="cls-14" d="M636.53,61.43a2.18,2.18,0,0,1-2.16,2.45,2.13,2.13,0,0,1-2.09-2.36,2.21,2.21,0,0,1,2.16-2.44A2.11,2.11,0,0,1,636.53,61.43Zm-3.61.08c0,1,.54,1.88,1.49,1.88s1.49-.87,1.49-1.93-.49-1.89-1.49-1.89S632.92,60.49,632.92,61.51Z"/><path class="cls-14" d="M642.69,61.76c0-.65-.08-1.42-.07-2h0c-.16.54-.35,1.12-.59,1.76l-.82,2.26h-.45L640,61.56c-.22-.65-.41-1.25-.54-1.8h0c0,.58,0,1.35-.09,2.05l-.12,2h-.57l.32-4.65h.77l.79,2.24c.19.58.35,1.09.47,1.57h0c.12-.47.28-1,.49-1.57l.83-2.24h.76l.29,4.65h-.58Z"/><path class="cls-14" d="M649.75,61.43a2.18,2.18,0,0,1-2.16,2.45,2.13,2.13,0,0,1-2.09-2.36,2.21,2.21,0,0,1,2.16-2.44A2.11,2.11,0,0,1,649.75,61.43Zm-3.61.08c0,1,.54,1.88,1.49,1.88s1.49-.87,1.49-1.93-.49-1.89-1.49-1.89S646.14,60.49,646.14,61.51Z"/><path class="cls-14" d="M651.91,63.07a2.09,2.09,0,0,0,1.08.31c.61,0,1-.33,1-.8s-.25-.68-.88-.92-1.23-.66-1.23-1.32a1.34,1.34,0,0,1,1.51-1.26,2.11,2.11,0,0,1,1,.23l-.17.49a1.87,1.87,0,0,0-.88-.22c-.64,0-.88.38-.88.69s.28.65.93.9,1.18.68,1.18,1.37-.53,1.33-1.63,1.33a2.47,2.47,0,0,1-1.18-.29Z"/><path class="cls-14" d="M658.92,59.67h-1.41v-.51H661v.51h-1.42v4.14h-.61Z"/><path class="cls-14" d="M663.53,59.16v2.75c0,1,.46,1.48,1.08,1.48s1.14-.45,1.14-1.48V59.16h.6v2.71c0,1.43-.75,2-1.76,2s-1.67-.54-1.67-2V59.16Z"/><path class="cls-14" d="M671.07,62.34l-.48,1.47H670l1.57-4.65h.73l1.59,4.65h-.65l-.49-1.47Zm1.52-.47-.45-1.33c-.11-.31-.17-.58-.24-.85h0c-.07.27-.14.56-.23.84l-.46,1.34Z"/><path class="cls-14" d="M679.54,63.6a4.55,4.55,0,0,1-1.43.25,2.18,2.18,0,0,1-2.39-2.34,2.33,2.33,0,0,1,2.52-2.4,3,3,0,0,1,1.16.21l-.14.49a2.43,2.43,0,0,0-1-.2,1.74,1.74,0,0,0-1.87,1.87,1.71,1.71,0,0,0,1.79,1.88,1.93,1.93,0,0,0,.8-.13V61.85H678v-.49h1.53Z"/><path class="cls-14" d="M684.32,61.63h-1.8V63.3h2v.51h-2.61V59.16h2.51v.5h-1.91v1.47h1.8Z"/><path class="cls-14" d="M686.77,63.81V59.16h.66l1.49,2.35a13,13,0,0,1,.83,1.51h0c-.06-.62-.07-1.19-.07-1.91V59.16h.56v4.65h-.6l-1.48-2.36a14.43,14.43,0,0,1-.87-1.56h0c0,.59.05,1.15.05,1.92v2Z"/><path class="cls-14" d="M696,63.65a3,3,0,0,1-1.23.22,2.16,2.16,0,0,1-2.29-2.35,2.31,2.31,0,0,1,2.42-2.44,2.41,2.41,0,0,1,1.11.21l-.15.49a2.14,2.14,0,0,0-.93-.2,1.74,1.74,0,0,0-1.82,1.92,1.69,1.69,0,0,0,1.79,1.87,2.38,2.38,0,0,0,1-.19Z"/><path class="cls-14" d="M698.83,59.16v4.65h-.6V59.16Z"/><path class="cls-14" d="M702.1,62.34l-.49,1.47H701l1.58-4.65h.73l1.58,4.65h-.64l-.49-1.47Zm1.52-.47-.45-1.33c-.11-.31-.18-.58-.25-.85h0c-.07.27-.14.56-.23.84l-.46,1.34Z"/><path class="cls-14" d="M708.49,59.22a8,8,0,0,1,1.28-.1,2.66,2.66,0,0,1,1.88.58,2.16,2.16,0,0,1,.65,1.67,2.48,2.48,0,0,1-.66,1.81,2.91,2.91,0,0,1-2.06.67,8.38,8.38,0,0,1-1.09-.06Zm.6,4.11a3.58,3.58,0,0,0,.61,0,1.78,1.78,0,0,0,2-2,1.66,1.66,0,0,0-1.89-1.79,3.77,3.77,0,0,0-.7.06Z"/><path class="cls-14" d="M717,61.63h-1.8V63.3h2v.51h-2.62V59.16h2.52v.5h-1.91v1.47H717Z"/><path class="cls-14" d="M720.78,63.07a2.09,2.09,0,0,0,1.08.31c.61,0,1-.33,1-.8s-.25-.68-.88-.92-1.23-.66-1.23-1.32a1.34,1.34,0,0,1,1.51-1.26,2.11,2.11,0,0,1,1,.23l-.17.49a1.87,1.87,0,0,0-.88-.22c-.64,0-.88.38-.88.69s.28.65.93.9,1.18.68,1.18,1.37-.53,1.33-1.63,1.33a2.47,2.47,0,0,1-1.18-.29Z"/><path class="cls-14" d="M728.13,61.63h-1.81V63.3h2v.51h-2.62V59.16h2.52v.5h-1.92v1.47h1.81Z"/><path class="cls-14" d="M734.12,63.6a4.55,4.55,0,0,1-1.43.25,2.18,2.18,0,0,1-2.39-2.34,2.33,2.33,0,0,1,2.52-2.4,3,3,0,0,1,1.16.21l-.14.49a2.43,2.43,0,0,0-1-.2,1.74,1.74,0,0,0-1.87,1.87,1.71,1.71,0,0,0,1.79,1.88,1.93,1.93,0,0,0,.8-.13V61.85h-.94v-.49h1.53Z"/><path class="cls-14" d="M737.1,59.16v2.75c0,1,.46,1.48,1.08,1.48s1.13-.45,1.13-1.48V59.16h.61v2.71c0,1.43-.75,2-1.76,2s-1.67-.54-1.67-2V59.16Z"/><path class="cls-14" d="M742.42,59.22a6.39,6.39,0,0,1,1.15-.1,1.93,1.93,0,0,1,1.35.38,1.17,1.17,0,0,1,.36.88,1.22,1.22,0,0,1-.87,1.19v0a1.15,1.15,0,0,1,.68.94,7,7,0,0,0,.36,1.28h-.62a6.07,6.07,0,0,1-.31-1.11c-.14-.65-.39-.89-.93-.91H743v2h-.6Zm.6,2.12h.61c.65,0,1-.36,1-.89s-.43-.86-1.07-.87a2.27,2.27,0,0,0-.59.06Z"/><path class="cls-14" d="M751.57,61.43a2.18,2.18,0,0,1-2.16,2.45,2.13,2.13,0,0,1-2.09-2.36,2.21,2.21,0,0,1,2.16-2.44A2.11,2.11,0,0,1,751.57,61.43Zm-3.61.08c0,1,.54,1.88,1.48,1.88s1.49-.87,1.49-1.93-.48-1.89-1.48-1.89S748,60.49,748,61.51Z"/><path class="cls-14" d="M753.72,63.07a2.11,2.11,0,0,0,1.08.31c.61,0,1-.33,1-.8s-.25-.68-.87-.92-1.23-.66-1.23-1.32a1.34,1.34,0,0,1,1.5-1.26,2.08,2.08,0,0,1,1,.23l-.17.49a1.87,1.87,0,0,0-.88-.22c-.63,0-.87.38-.87.69s.28.65.92.9,1.19.68,1.19,1.37-.53,1.33-1.63,1.33a2.48,2.48,0,0,1-1.19-.29Z"/><path class="cls-17" d="M882.64,47.09A38,38,0,0,0,891,44.64c.07.86,0,1.73,0,2.6a12.55,12.55,0,0,1-.41,4.36,7.62,7.62,0,0,1-5.65,5.24,8.64,8.64,0,0,1-5.93-.4,4.5,4.5,0,0,1-2-3.09,5.74,5.74,0,0,1,1.31-4.44A11,11,0,0,1,882.64,47.09ZM860.28,5a15.78,15.78,0,0,1,11.56-3,15.41,15.41,0,0,1,9.06,4.37l20.39,20.38c1.86,1.91,4,3.69,5.27,6.06a15.94,15.94,0,0,1,1.76,10.61,15.2,15.2,0,0,1-4,8c-1.64,1.68-15.79,15.8-17.67,17.72-1.47,1.49-2.92,3-4.45,4.41a30.33,30.33,0,0,1-3.16,3,16.79,16.79,0,0,1-7.25,2.79,16,16,0,0,1-13.15-4.46c-1.86-1.84-3.71-3.7-5.58-5.54q-4.66-4.72-9.37-9.39c-.54-.51-.48-1.32-.87-1.92-.54-.71-.19-1.62-.34-2.43a3.9,3.9,0,0,0-1.06-1.77,6.43,6.43,0,0,0-.3-2.54,11,11,0,0,0,2.7-2.78,3.82,3.82,0,0,0-.67-4.35A6.26,6.26,0,0,0,841.32,43a8.38,8.38,0,0,0-2.5.07c-1.33.34-2.28,1.4-3.48,2,.21-1,.49-1.89.7-2.85a2.1,2.1,0,0,0-1.2-2.48,2.56,2.56,0,0,0-2.32.43,3.67,3.67,0,0,0-1.42-1l.08-1.13a14,14,0,0,1,3.42-7.56C835.58,29.3,853.39,11.61,857,8A27.91,27.91,0,0,1,860.28,5Z"/><path class="cls-18" d="M929,36.08a12.81,12.81,0,0,1,3.5.18A2.61,2.61,0,0,1,934,38.77c0,4.86,0,9.72,0,14.58.15,10.7-17.08,13.2-18.56.82-.34-3.27-.06-6.84,1.93-9.59a7.12,7.12,0,0,1,7.09-2.94A6.58,6.58,0,0,1,929,44.48c0-2.8,0-5.6,0-8.4m-5.64,10.13c-1.82.64-2.65,2.67-2.86,4.44a9.3,9.3,0,0,0,1.07,5.66,4,4,0,0,0,6.33.09,9.48,9.48,0,0,0,.94-6.59,5.13,5.13,0,0,0-1.72-3.05A4.25,4.25,0,0,0,923.31,46.21Zm24.43-2.57a11,11,0,0,1,8.83-1.83c2,.52,4.19,1.46,5.24,3.39a12.64,12.64,0,0,1,1,5.7c0,3.66,0,7.31,0,11a15.83,15.83,0,0,1-3.64-.19,2.45,2.45,0,0,1-1.52-2.38v-10a3.52,3.52,0,0,0-.71-2.42,3.92,3.92,0,0,0-5.47-.11,3.54,3.54,0,0,0-.79,2.54c0,4.18,0,8.37,0,12.55h-5.24c0-4.18,0-8.37,0-12.55C945.58,47.26,946,45,947.74,43.64Zm67.44-.5a10.1,10.1,0,0,1,3.48,6.65,13.68,13.68,0,0,1-1.56,8.68,7.72,7.72,0,0,1-5.68,3.57c-3.12.48-6.76-.25-8.83-2.81-1.61-1.82-1.93-4.37-2.13-6.7-.07-2.78.33-5.8,2.13-8C1005.36,40.94,1011.73,40.58,1015.18,43.14Zm-6.9,3a3.62,3.62,0,0,0-2.37,2.57,11.86,11.86,0,0,0,0,6.09,3.83,3.83,0,0,0,1.75,2.65,3.59,3.59,0,0,0,4.31-.36c1.29-1.14,1.61-2.94,1.71-4.57a7.37,7.37,0,0,0-1.36-5.43A3.62,3.62,0,0,0,1008.28,46.14ZM966.19,47c2.47-7.09,13.61-7.59,16.72-.16a15.4,15.4,0,0,1,.8,6.46c-4.35,0-8.69,0-13,0,.09,1.64.71,3.53,2.3,4.28a5,5,0,0,0,3.95-.16c.79-.42,1.2-1.41,2.13-1.59,1.46-.13,2.94,0,4.42,0a8.54,8.54,0,0,1-3,4.68,10.61,10.61,0,0,1-8.84,1.43A8.24,8.24,0,0,1,966,55.93,15.83,15.83,0,0,1,966.19,47Zm6.56-.71a4.29,4.29,0,0,0-2.08,3.64h7.75c-.15-1.44-.69-3.13-2.15-3.73A4.86,4.86,0,0,0,972.75,46.25ZM937.67,42c1.34.1,2.82-.3,4.05.38a2.52,2.52,0,0,1,1.17,2.06V61.86c-1.74,0-3.48,0-5.22,0C937.69,55.23,937.67,48.6,937.67,42Zm52.73,1.89A13,13,0,0,1,998.09,42c0,1.76,0,3.52,0,5.29-1.54,0-3.26-.18-4.6.76a4.15,4.15,0,0,0-1.39,3.41c0,3.48,0,7,0,10.42-1.74,0-3.47,0-5.21,0,0-3.39,0-6.77,0-10.15A9.6,9.6,0,0,1,990.4,43.87Z"/><path class="cls-18" d="M817.84,62.49l4.45-3.21c1.48,3.2,3.76,5.92,5.66,8.86-2.19,0-4.39,0-6.58,0-.44,0-.71-.41-.94-.72a23.77,23.77,0,0,1-2.59-4.91"/><path class="cls-18" d="M832,44.41c.13.57-.85.73-1,.2l-.46-3.25a.51.51,0,0,1,1-.17Z"/><path class="cls-18" d="M834.06,44.89c-.1.58-1.07.34-1-.19l.84-3.17a.5.5,0,0,1,1,.22Z"/><path class="cls-18" d="M829.78,45.06c.34.48-.52,1-.82.56l-1.65-2.84a.51.51,0,0,1,.85-.54Z"/><path class="cls-18" d="M1012.67,71.21V66.12h4.41v.63h-3.58v1.52h3.3v.6h-3.3v1.7h3.65v.64Zm-7.61,0V66.12h.92l2.89,3.7.17.22c0,.08.08.14.11.21V66.12h.8v5.09H1009l-2.95-3.75-.13-.18-.1-.19v4.12Zm-3.59,0V66.12h.84v5.09Zm-6,0V66.12h.85v4.44h3.08v.65Zm-7.61,0V66.12h.92l2.89,3.7a2.39,2.39,0,0,1,.16.22,1.57,1.57,0,0,1,.12.21V66.12h.8v5.09h-.91l-3-3.75-.13-.18a1.74,1.74,0,0,1-.1-.19v4.12Zm-8.31-2.54a2.52,2.52,0,0,1,.78-2,3.61,3.61,0,0,1,4.3,0,2.91,2.91,0,0,1,0,3.94,3.61,3.61,0,0,1-4.3,0A2.52,2.52,0,0,1,979.53,68.67Zm.87,0a1.9,1.9,0,0,0,2.06,2.08A2,2,0,0,0,984,70.2a2.1,2.1,0,0,0,.54-1.53,2.07,2.07,0,0,0-.54-1.53,2.35,2.35,0,0,0-3,0A2,2,0,0,0,980.4,68.67Zm-17.26.86h.8a1.08,1.08,0,0,0,.45.88,1.88,1.88,0,0,0,1.16.33,2.13,2.13,0,0,0,1.13-.25.75.75,0,0,0,.42-.68c0-.38-.52-.68-1.56-.88l-.14,0a4.69,4.69,0,0,1-1.66-.55,1,1,0,0,1-.41-.86,1.27,1.27,0,0,1,.61-1.09,2.84,2.84,0,0,1,1.61-.41,2.67,2.67,0,0,1,1.61.43,1.4,1.4,0,0,1,.59,1.19H967a1,1,0,0,0-.42-.78,1.76,1.76,0,0,0-1-.27,1.91,1.91,0,0,0-1,.22.69.69,0,0,0-.37.59c0,.4.51.69,1.53.88l.35.07.09,0a3.93,3.93,0,0,1,1.32.42,1.16,1.16,0,0,1,.38.42,1.14,1.14,0,0,1,.13.55,1.35,1.35,0,0,1-.64,1.18,3,3,0,0,1-1.73.43,2.82,2.82,0,0,1-1.75-.47A1.68,1.68,0,0,1,963.14,69.53Zm-8-.86a2.52,2.52,0,0,1,.78-2A3.06,3.06,0,0,1,958,66a3,3,0,0,1,2.14.71,2.88,2.88,0,0,1,0,3.94,3.05,3.05,0,0,1-2.14.71,3.11,3.11,0,0,1-2.16-.71A2.52,2.52,0,0,1,955.1,68.67Zm.87,0a2.15,2.15,0,0,0,3.58,1.53,2.1,2.1,0,0,0,.54-1.53,2.07,2.07,0,0,0-.54-1.53A2.07,2.07,0,0,0,956,68.67Zm-5.54,2.54V66.74h-1.95v-.62h4.74v.62h-2v4.47Zm-5,0V66.12h.85v5.09Zm-7.49,0V66.12h2.35a2.79,2.79,0,0,1,2,.64,2.35,2.35,0,0,1,.68,1.83,2.54,2.54,0,0,1-.71,1.93,2.71,2.71,0,0,1-2,.69Zm2.28-4.5h-1.44v3.88h1.44a1.84,1.84,0,0,0,1.4-.5,2,2,0,0,0,.47-1.46,2,2,0,0,0-.48-1.43A1.84,1.84,0,0,0,940.25,66.71Zm-7.62-1,.86-1.21h.84l-1.19,1.21Zm-1.56,5.53V66.12h4.4v.63H931.9v1.52h3.3v.6h-3.3v1.7h3.64v.64ZM924,66.12h2.4a8,8,0,0,1,.86,0,2.18,2.18,0,0,1,.49.14,1.26,1.26,0,0,1,.8,1.23,1.16,1.16,0,0,1-.21.7,1.41,1.41,0,0,1-.64.46.89.89,0,0,1,.51.28,1.16,1.16,0,0,1,.19.67l.08.84a1.16,1.16,0,0,0,.08.4.41.41,0,0,0,.2.19v.14h-1a1.47,1.47,0,0,1-.17-.68v0l-.05-.67a.85.85,0,0,0-.26-.66,2.47,2.47,0,0,0-1.11-.15h-1.36v2.18H924Zm.83.6v1.72h1.43a2.1,2.1,0,0,0,1.1-.21.73.73,0,0,0,.32-.69.7.7,0,0,0-.3-.64,2.39,2.39,0,0,0-1.12-.18Zm-4,2.6h.81a1.9,1.9,0,0,1-.77,1.48,2.93,2.93,0,0,1-1.85.55,2.75,2.75,0,0,1-2-.73,2.71,2.71,0,0,1-.74-2,2.46,2.46,0,0,1,.77-1.9A3,3,0,0,1,919,66a3.05,3.05,0,0,1,1.71.44,1.69,1.69,0,0,1,.78,1.22h-.83a1.17,1.17,0,0,0-.55-.78A2.2,2.2,0,0,0,919,66.6a1.92,1.92,0,0,0-1.46.55,2.14,2.14,0,0,0-.51,1.53,2.09,2.09,0,0,0,.53,1.49,1.88,1.88,0,0,0,1.43.56,2,2,0,0,0,1.25-.38A1.39,1.39,0,0,0,920.75,69.32Z"/><path class="cls-19" d="M937.58,36c1.48.09,3.34-.46,4.47.79.87.83.71,2.13.56,3.21-1.67,0-3.35,0-5,0,0-1.32,0-2.65,0-4M882.64,47.09A38,38,0,0,0,891,44.64c.07.86,0,1.73,0,2.6a12.55,12.55,0,0,1-.41,4.36,7.62,7.62,0,0,1-5.65,5.24,8.64,8.64,0,0,1-5.93-.4,4.5,4.5,0,0,1-2-3.09,5.74,5.74,0,0,1,1.31-4.44A11,11,0,0,1,882.64,47.09ZM860.28,5a15.78,15.78,0,0,1,11.56-3,15.41,15.41,0,0,1,9.06,4.37l20.39,20.38c1.86,1.91,4,3.69,5.27,6.06a15.94,15.94,0,0,1,1.76,10.61,15.2,15.2,0,0,1-4,8c-1.64,1.68-3.32,3.34-5,5a22.19,22.19,0,0,0,1.35-8.3c0-4.51-.18-9.25-.12-13.72a9.09,9.09,0,0,0-1-3.78,10.14,10.14,0,0,0-2.8-3.28c-2.67-2-6.06-2.65-9.3-3-3.94-.24-8.05-.27-11.74,1.31a11.87,11.87,0,0,0-7.33,9.5c3.31,0,6.62,0,9.93,0A4,4,0,0,1,881,32.83a12.59,12.59,0,0,1,8.28.46,2.74,2.74,0,0,1,.75,4.47c-1.64,1.37-3.85,1.65-5.89,2-3.45.55-7,.82-10.21,2.39-2.31,1-4.6,2.62-5.57,5.07a15.92,15.92,0,0,0-.1,10.93,9.27,9.27,0,0,0,4.38,5,7.54,7.54,0,0,0,2.2.89l-.32,0a18.67,18.67,0,0,0,8,1,35.16,35.16,0,0,0,6.4-.64c1.17-.23,2.26-.75,3.43-1-1.91,1.89-3.82,3.79-5.7,5.71-1.47,1.49-2.92,3-4.45,4.41a30.33,30.33,0,0,1-3.16,3,16.79,16.79,0,0,1-7.25,2.79,16,16,0,0,1-13.15-4.46c-1.86-1.84-3.71-3.7-5.58-5.54q-4.66-4.72-9.37-9.39c-.54-.51-.48-1.32-.87-1.92-.54-.71-.19-1.62-.34-2.43a3.9,3.9,0,0,0-1.06-1.77,6.43,6.43,0,0,0-.3-2.54,11,11,0,0,0,2.7-2.78,3.82,3.82,0,0,0-.67-4.35A6.26,6.26,0,0,0,841.32,43a8.38,8.38,0,0,0-2.5.07c-1.33.34-2.28,1.4-3.48,2,.21-1,.49-1.89.7-2.85a2.1,2.1,0,0,0-1.2-2.48,2.56,2.56,0,0,0-2.32.43,3.67,3.67,0,0,0-1.42-1l.08-1.13a14,14,0,0,1,3.42-7.56c1-1.24,2.18-2.27,3.27-3.4a9.33,9.33,0,0,1,1.24,2.14c0-.1,0-.2,0-.31a17.84,17.84,0,0,0,1.38,2.59c2.69,4.63,5.34,9.28,8.06,13.89,0,6.31,0,12.63,0,18.94,3.49,0,7,0,10.48,0,0-6.3-.06-12.61.06-18.9,5-10.37,11-21.19,16.61-31.89-2.89,0-5.78,0-8.66,0a5,5,0,0,0-3.63,1.52,8.27,8.27,0,0,0-1.59,2.74Q859.92,22,858,26.19a9,9,0,0,0-1,2.47c0-.12,0-.24,0-.36-1,2.28-2.09,4.49-3,6.77l-.3.14c-2.22-4.5-4.46-9-6.65-13.51a15.75,15.75,0,0,1-1.06-2.19.66.66,0,0,1,.26-.71L857,8A27.91,27.91,0,0,1,860.28,5Z"/><path class="cls-17" d="M821.56,47a23.34,23.34,0,0,1,2.11,2.67,46.16,46.16,0,0,1,.15,6,7.08,7.08,0,0,0,.41,3.17,82,82,0,0,0,4.82,7.38c.35.44.64,1.07,1.26,1.16a5.23,5.23,0,0,0,2-1.07c2.56-1.71,5.1-3.44,7.66-5.16.56-.38,1.26-.72,1.42-1.44a2.31,2.31,0,0,0-.82-2.22,3.9,3.9,0,0,0,.19-1.39c-.05-.81-.74-1.33-1.23-1.89a2.65,2.65,0,0,0,0-2,11.27,11.27,0,0,0-1-1.21,9.34,9.34,0,0,0,3.56-2.9,2,2,0,0,0-.11-2.24,2.81,2.81,0,0,0-3.76-.38q-4.27,3-8.68,5.83a8.13,8.13,0,0,1-1.34-2.7A5.86,5.86,0,0,0,826.52,46a3.7,3.7,0,0,0-4.21-.61C821.77,45.72,821.23,46.41,821.56,47Z"/><path class="cls-18" d="M822,46.26c.66.76,1.37,1.49,2,2.29a2,2,0,0,1,.45,1.26l.05,7.92a4.75,4.75,0,0,0,.86,1.92c1.56,2.55,3.27,5,4.95,7.48.84-.48,1.69-1,2.48-1.52,2.46-1.7,4.93-3.37,7.45-5,.72-.4,1.21-2.12.06-2.17a23.23,23.23,0,0,0-3.41.44A30.26,30.26,0,0,0,840,57.33a1.21,1.21,0,0,0-.54-2,10.55,10.55,0,0,0-1.59-.13,10.11,10.11,0,0,0,1.23-1.39,1.4,1.4,0,0,0-.91-2,11,11,0,0,0-2.15,0c1.51-1.09,3-2.15,4.58-3.21a3.4,3.4,0,0,0,1.4-1.46,1.35,1.35,0,0,0-1.22-1.72c-1.25-.1-2.19.85-3.17,1.47-2.8,1.82-5.46,3.86-8.35,5.56-1.37-1.31-1.8-3.22-2.56-4.89a3.53,3.53,0,0,0-3.81-2.13c-.46,0-.66.5-.92.82m-.09-1.36a3.89,3.89,0,0,1,4.44.64,6.19,6.19,0,0,1,1.73,2.81,8.27,8.27,0,0,0,1.41,2.85q4.63-3,9.14-6.14a3,3,0,0,1,4,.4,2.06,2.06,0,0,1,.11,2.36,9.89,9.89,0,0,1-3.75,3,11.54,11.54,0,0,1,1,1.28,2.82,2.82,0,0,1,0,2.06c.52.59,1.24,1.14,1.29,2a4,4,0,0,1-.19,1.46A2.45,2.45,0,0,1,842,60c-.17.76-.91,1.11-1.5,1.51-2.69,1.81-5.37,3.64-8.07,5.44a5.39,5.39,0,0,1-2.06,1.12c-.65-.09-1-.75-1.33-1.21a84.3,84.3,0,0,1-5.07-7.78,7.27,7.27,0,0,1-.44-3.34,49.32,49.32,0,0,0-.15-6.32c-.52-1.09-1.56-1.82-2.23-2.82C820.76,46,821.32,45.22,821.89,44.9Z"/></g></g></svg>