<svg xmlns="http://www.w3.org/2000/svg" viewBox="0 0 1082.24 169.13"><defs><style>.cls-1{fill:#c1272d;}.cls-2{fill:#f9fbfb;}.cls-3{fill:#fafbfb;}.cls-4{fill:#fafcfc;}.cls-5,.cls-6{fill:#fff;}.cls-6{fill-rule:evenodd;}</style></defs><g id="Capa_2" data-name="Capa 2"><g id="Capa_1-2" data-name="Capa 1"><rect class="cls-1" width="1082.24" height="169.13" rx="20.41"/><path class="cls-2" d="M317.75,90.26c0-1.48,0-3,0-4.44q-.35-18.82-.69-37.64c0-1.69.07-3.37.13-5.06.09-2.72,1.42-4.71,4.09-5.09a81.84,81.84,0,0,1,11.27-.84c2.64,0,4.35,2,4.32,4.75-.07,6.33-.27,12.67-.54,19-.47,11-1.23,21.93-1.51,32.9-.3,12-.18,23.94-.25,35.92,0,.4-.1.81-.09,1.21.13,5.37-4.1,7.67-8.64,8.12a17,17,0,0,1-2.26,0c-4.69-.14-6.19-1.31-7.91-5.65-4.61-11.61-9.29-23.19-13.95-34.78a3.33,3.33,0,0,0-1.09-1.46c-.13,1.16-.31,2.32-.37,3.48-.49,10.62-.94,21.24-1.43,31.86-.22,4.83-2.19,6.72-7,6.63-2.55,0-5.11-.23-7.65-.52s-4-1.77-3.85-4.45c.56-11,1.15-21.93,1.84-32.88.41-6.61.89-13.22,1.58-19.8,1.17-11.21,2.49-22.4,3.83-33.58.4-3.37,2.24-5.1,5.22-5.35a4.76,4.76,0,0,1,5,2.94q6.59,14.9,13.12,29.81c2,4.64,3.94,9.32,5.91,14a10.26,10.26,0,0,0,.56,1Z"/><path class="cls-3" d="M97,94c.24-2.23.46-4.46.72-6.68,1.52-12.86,2.53-25.8,5.41-38.46A33.63,33.63,0,0,1,104.58,44a7.07,7.07,0,0,1,6.08-4.6,17.05,17.05,0,0,1,8.07.73c3.14,1.11,4.54,3.13,4.16,6.54-.56,4.9-1.24,9.8-1.77,14.71q-2.28,21.14-4.47,42.28c-.81,7.76-1.84,15.48-4.2,22.94a32.13,32.13,0,0,1-2.82,6.54c-2.1,3.6-5.56,4.66-9.47,3.2a14.36,14.36,0,0,1-7-5.81A115.15,115.15,0,0,1,82.49,109.8c-1-2.63-2-5.26-3-7.89l-.45,0c-.34,2-.62,4-1,6-1.52,7.82-2.94,15.65-4.64,23.42-1.07,4.93-4,6.31-8.71,4.45a37.91,37.91,0,0,1-4.45-2c-3.68-2-4.83-4.37-4.14-8.5,1-5.85,2-11.69,3.1-17.51,2.25-11.45,4.45-22.92,7-34.31,1.19-5.44,2.92-10.77,4.62-16.08a23,23,0,0,1,3-6.24c3.12-4.39,8.54-4.37,11.17.3A47.14,47.14,0,0,1,89.36,63c2.49,9.67,4.59,19.44,6.85,29.17.14.62.32,1.23.48,1.84Z"/><path class="cls-4" d="M360.7,113.4c-1.29,7.25-2.52,14.22-3.78,21.18a17.45,17.45,0,0,1-.81,3.2c-1.17,3.11-3.22,4.35-6.52,4-2.54-.27-5.09-.5-7.6-1-4.16-.76-5-1.94-4.32-6.07,1.59-10.22,3.1-20.45,4.82-30.64,2.85-16.85,6.26-33.58,11.51-49.88,1.14-3.53,2.32-7,3.62-10.53a11.42,11.42,0,0,1,2-3.42c3.42-4,8-4.15,11.1.07A49.91,49.91,0,0,1,376.65,51c5,12,8.17,24.57,11.43,37.11,4.07,15.68,7.94,31.41,11.88,47.13a12.94,12.94,0,0,1,.32,2.41c.19,3.52-1.45,6.09-4.85,6.89a65,65,0,0,1-9.11,1.35c-2.38.22-3.78-1.31-4.89-3.28-2.22-3.92-3-8.26-4-12.56-1.11-4.81-2.25-9.61-3.3-14.43-.22-1-.59-1.31-1.59-1.36C368.71,114,364.9,113.7,360.7,113.4Zm3.09-12.94,6.9.43c-1.18-5-2.3-9.81-3.43-14.59H367C365.92,90.93,364.88,95.55,363.79,100.46Z"/><path class="cls-2" d="M239.57,85c-6.64-3.24-9.69-8.49-10.29-15.26A25,25,0,0,1,233,54.61C239.75,43,250.24,38,263.18,37.29a55.35,55.35,0,0,1,6.44,0c3.28.18,5,2,5,5.29,0,2.73-.06,5.46-.19,8.19-.18,3.59-2.17,5.28-5.72,5.75a85.85,85.85,0,0,0-11.56,2.37c-3.43,1-6.1,3.32-8.35,6.05a9.19,9.19,0,0,0-1.51,2.72c-.83,2.35-.07,4.21,2.26,5.1a17.9,17.9,0,0,0,5.05,1.15c2.83.19,5.69,0,8.54.09,3.66.09,5.3,1.77,5.4,5.38.06,2.21.22,4.41.22,6.62,0,3.85-1.43,5.6-5.12,6.63-3.29.92-6.63,1.75-9.83,2.94a16.12,16.12,0,0,0-8,6,14.25,14.25,0,0,0-2.28,5.53c-.56,3.74,2,6,4.88,7.53a23.68,23.68,0,0,0,7.38,2.45,26,26,0,0,0,10.86-.72c4.83-1.26,8.78.53,8.61,6.1a50.2,50.2,0,0,1-1.32,9.09c-.72,3.29-3.08,5.18-6.16,6.33-7.71,2.89-15.59,3.23-23.69,2.21-9.52-1.21-15-7.16-18.89-15.23-5.72-12-1.76-24.65,6.49-33.65,1.81-2,4.19-3.45,6.32-5.14C238.42,85.76,238.86,85.5,239.57,85Z"/><path class="cls-2" d="M176.85,84.05a75.29,75.29,0,0,1-5.94,31.8,45.13,45.13,0,0,1-12.17,17C149,141.46,136.27,138.63,129,130c-5-5.91-7-13-7.09-20.53a113.22,113.22,0,0,1,6.55-41.25,41.39,41.39,0,0,1,7.05-12.76c5.74-6.72,12.72-10.95,22-10.33a15.59,15.59,0,0,1,13.94,9.52,58.74,58.74,0,0,1,5.42,23.45C176.89,79.86,176.85,81.61,176.85,84.05Zm-17.48-2.47A41.61,41.61,0,0,0,159.3,75a37.54,37.54,0,0,0-2.19-7.44c-.63-1.6-2.19-2-3.85-1.5a10,10,0,0,0-5.47,3.52,49.88,49.88,0,0,0-10.22,31.2,23,23,0,0,0,1.94,8.76c2.51,5.85,9.49,6.46,13.13,1.25a30.85,30.85,0,0,0,3.64-6.91A55.81,55.81,0,0,0,159.37,81.58Z"/><path class="cls-2" d="M200.39,92.62c.91-3.59,1.75-7.2,2.74-10.77q4.22-15.18,8.54-30.35.93-3.27,2-6.5c1.07-3.24,2.9-4.76,6.28-4.77a26.52,26.52,0,0,1,6.52.8c3,.78,4.67,2.84,4.29,5.91a69,69,0,0,1-2.4,11.56q-7,23.19-14.36,46.27-3.57,11.3-7.65,22.43a38.55,38.55,0,0,1-4.18,7.8c-1.51,2.32-3.71,4.05-6.72,3.52-3.23-.57-6.05-2-6.85-5.57-1.21-5.38-2.73-10.73-3.37-16.18-1.81-15.35-3.26-30.74-4.8-46.11-.75-7.46-1.4-14.93-2.05-22.39a27.6,27.6,0,0,1,0-4.36,4.08,4.08,0,0,1,3-3.87c3-.9,6-1.74,9.09-2.43a4.48,4.48,0,0,1,5.7,4.31c.42,5.33.5,10.68.9,16,.85,11.3,1.8,22.59,2.72,33.88,0,.26.07.52.11.78Z"/><path class="cls-5" d="M654,83.61a53.37,53.37,0,0,0,4.34-3.81c2.62-2.88,5-6,7.68-8.79a8.21,8.21,0,0,1,4.08-2.54c2.69-.48,4.89,2.44,4.25,5.2a4,4,0,0,1-.59,1.48c-4.86,6.54-9.74,13.08-17.21,16.93A2.45,2.45,0,0,0,655,94.9c.88,12.46,1.69,24.92,2.52,37.38,0,.6.09,1.21.09,1.81,0,2.52-1.22,4.22-3.32,4.61a4.17,4.17,0,0,1-5-3.07,43.33,43.33,0,0,1-1-7.56c-.73-10.31-1.39-20.63-2.08-30.94a8.5,8.5,0,0,0-.2-1.08,73.23,73.23,0,0,1-19.61,2.27c-.6,0-1.21,0-1.81,0-3-.18-3.07-.2-4,2.81q-4.23,13.66-8.4,27.34c-.25.83-.32,1.71-.52,2.56a4.19,4.19,0,0,1-4.31,3.49,4,4,0,0,1-3.87-3.71,13.3,13.3,0,0,1,.57-4.93C609.34,109,614.54,92.11,620,75.33c2.81-8.6,6.09-17.06,9.3-25.52a20.59,20.59,0,0,1,3.07-5.18c3.7-4.67,9.35-4.78,12.74.1a26.29,26.29,0,0,1,4.2,9.46c1.72,8.47,2.83,17.07,4.17,25.61C653.65,80.85,653.77,81.9,654,83.61Zm-29.55,5.88c7.09.28,13.6-.17,19.9-2.32.41-.14.81-1.18.74-1.74-1.35-9.69-2.72-19.38-4.23-29a29.18,29.18,0,0,0-1.8-5.15l-.67,0C632.38,63.4,629.16,76.55,624.44,89.49Z"/><path class="cls-5" d="M832.49,116.38c.28-7,.59-14.08.84-21.12.39-11.14.74-22.28,1.13-33.42a4.33,4.33,0,0,1,4-4.49A4.25,4.25,0,0,1,843,61.09a35.05,35.05,0,0,1,.08,5.8c-.3,10.81-.57,21.62-1,32.42-.46,12.75-1,25.49-1.51,38.24-.09,2.42-1,4.3-3.28,5.33a4.47,4.47,0,0,1-6.38-2.71q-2.81-7.23-5.18-14.62c-4.66-14.43-9.24-28.89-13.85-43.34a1.32,1.32,0,0,0-.83-.84c-.5,3.88-1,7.77-1.52,11.65q-2.51,18.45-5,36.9c-.21,1.53-.34,3.07-.55,4.6a4,4,0,0,1-3.77,3.79,3.91,3.91,0,0,1-4.38-3.31,21.15,21.15,0,0,1,.13-5.78c2.07-16.24,4.15-32.49,6.35-48.71.58-4.25,1.53-8.45,2.41-12.66a5.85,5.85,0,0,1,3.12-4.45c2.48-1.18,5.36-.7,6.66,1.89A100.76,100.76,0,0,1,820,78.63c3.91,11.92,7.55,23.94,11.31,35.91.22.67.51,1.32.77,2Z"/><path class="cls-5" d="M990.62,80.87c2.38-2,4.48-3.68,6.51-5.45a4.67,4.67,0,0,1,5.74-.57,4.39,4.39,0,0,1,1.12,5.78,6.4,6.4,0,0,1-1,1.47c-3,3-6.27,5.73-10.37,7.13A2.36,2.36,0,0,0,990.75,92c.31,11.24,0,22.44-2.26,33.5-1,4.76-2.36,9.38-5.15,13.45-3.79,5.54-9,6-13.69,1.22a17.82,17.82,0,0,1-4.87-9.34c-1-5.28-2.12-10.6-2.22-15.92-.28-15.78-.22-31.57,0-47.35.08-5.91,3.65-10.39,8.27-13.51,5.6-3.78,13.33-.67,16.09,6.29a50.43,50.43,0,0,1,2.36,9.95c.5,2.9.62,5.87.93,8.8A18,18,0,0,0,990.62,80.87Zm-15.17,53,.88-.1a37.2,37.2,0,0,0,2.08-4.72c3.55-12.48,3.81-25.26,3.3-38.09a1.68,1.68,0,0,0-.69-1.27c-3.23-1.55-6.5-3-9.82-4.51a8.51,8.51,0,0,0-.12,1.13c0,8.39-.16,16.78.19,25.15a150,150,0,0,0,2,16.73C973.58,130.13,974.7,132,975.45,133.85Zm6-53.58c-.45-4-.75-7.62-1.31-11.23a20.9,20.9,0,0,0-1.68-5.73c-1.13-2.36-3.31-2.36-4.59-.12a12.81,12.81,0,0,0-1.5,3.89C971.29,73,974.4,77.16,981.47,80.27Z"/><path class="cls-5" d="M717.84,102.82a74.57,74.57,0,0,1-4.26,23.31,25.36,25.36,0,0,1-6.84,10.54c-5,4.67-10.71,5-16.27.92a22.65,22.65,0,0,1-6.73-8.42,51.06,51.06,0,0,1-5-20.8c-.65-15.46.61-30.75,5.52-45.53a34.85,34.85,0,0,1,4.77-9A12,12,0,0,1,706,51a38.92,38.92,0,0,1,7.14,7,4.14,4.14,0,0,1-.72,6.22c-2,1.38-4.31.8-6.15-1.41a29.69,29.69,0,0,0-3.47-3.62c-3.14-2.66-5.63-2.17-7.79,1.35-2.6,4.26-3.8,9-4.75,13.82a131.15,131.15,0,0,0-2.48,35.25c.44,5.81,1.54,11.47,4.49,16.57a20.39,20.39,0,0,0,3.88,4.53c1.39,1.28,2.91,1,4.33-.26,3.18-2.79,4.72-6.49,5.81-10.4a65.83,65.83,0,0,0,2.51-20.71c-.07-1.54-.62-2-2-1.88-2,.18-4,.24-6,.44a4.39,4.39,0,0,1-4.88-3A4.09,4.09,0,0,1,698,89.77a9.87,9.87,0,0,1,3.65-1c2.67-.17,5.37-.2,8-.11,4,.14,6.63,2.27,7.4,6.15A78.76,78.76,0,0,1,717.84,102.82Z"/><path class="cls-5" d="M875.21,114.53c-4.39,1-8.5,1.83-12.58,2.83-.43.11-.87,1-1,1.55-1,7.17-2.08,14.34-3,21.53-.4,3.08-2.06,4.89-4.66,4.7s-4.19-2.28-3.84-5.39c.75-6.74,1.55-13.47,2.56-20.17q3.48-23.1,7.21-46.16A60.47,60.47,0,0,1,861.8,66a16.21,16.21,0,0,1,1.5-3.51c2.5-4.38,7.61-4.79,10.28-.52a29.76,29.76,0,0,1,3.93,9.4c1.8,8.52,3.28,17.13,4.52,25.75,1.87,13,3.43,26.09,5.12,39.14.14,1.06.28,2.13.36,3.2a4.6,4.6,0,0,1-3.72,5.19,4.25,4.25,0,0,1-5-3.84c-.77-4.7-1.28-9.45-1.91-14.17C876.35,122.75,875.81,118.84,875.21,114.53Zm-6-40.31h-.7c-1.8,11.21-3.6,22.43-5.46,34.05l11.1-2.39C872.86,95.14,872,84.54,869.24,74.22Z"/><path class="cls-5" d="M955,81.58a87.12,87.12,0,0,1-8.14,36.33c-3.4,7.29-7.41,14.3-11.15,21.43a16.4,16.4,0,0,1-1,1.53c-1.24,1.83-2.62,3.64-5.13,3.23a6.31,6.31,0,0,1-5.07-4.68,31.74,31.74,0,0,1-1.15-7.33c-.74-12.87-1.59-25.74-1.95-38.62a54.41,54.41,0,0,1,5.43-25.59c.5-1,1-2,1.63-3,6.17-10.3,17.27-6.85,21.49-.45C953.72,70.07,954.82,76.44,955,81.58Zm-23.41,46.08.54.18c.89-1.77,1.74-3.56,2.67-5.31,6.28-11.87,10.76-24.26,11.22-37.86.17-5-.37-9.94-2.81-14.44-2.05-3.78-5.4-3.85-7.47-.21a37.89,37.89,0,0,0-4.87,15.64C929.67,99.69,930.84,113.67,931.59,127.66Z"/><path class="cls-5" d="M741.87,127.5c.74-1.83,1.62-3.62,2.2-5.51a127.06,127.06,0,0,0,5-27.27c.89-10.64,1.63-21.28,2.45-31.92.24-3.07,2-4.85,4.6-4.8a4.17,4.17,0,0,1,4.22,4.65c-1.24,16.78-1.52,33.68-4.9,50.24a135,135,0,0,1-4.91,16.76,14.59,14.59,0,0,1-3.65,5.22,7.54,7.54,0,0,1-11.14-.12,22.82,22.82,0,0,1-6-11.91,137,137,0,0,1-2.67-20.71c-.42-12.67-.14-25.37-.09-38.06a18.76,18.76,0,0,1,.63-4.77,4.18,4.18,0,0,1,5.06-3.22c2.05.44,3.19,2.29,3.14,4.74-.37,16.85-.75,33.71.79,50.52.45,4.87,1.17,9.74,3.52,14.17.34.64.7,1.27,1.06,1.9Z"/><path class="cls-5" d="M1018.72,115.41a105.52,105.52,0,0,0-7.64-33.78c-2.19-5.42-4.17-10.92-4.06-16.92.09-4.49,1.82-8,6-9.89s8-.5,11.22,2.22c5,4.19,6.87,9.8,6.56,16.19a4.15,4.15,0,0,1-3.78,4.06,4.29,4.29,0,0,1-4.47-3.56c-.28-1.3-.3-2.66-.48-4a9,9,0,0,0-3.55-6.1,2.65,2.65,0,0,0-2-.53c-.34.09-.72,1.18-.61,1.73.79,3.85,1.25,7.86,2.68,11.49a126.12,126.12,0,0,1,8.77,34.83c.79,8.76-.38,17.2-5.36,24.71-2.69,4-6.45,6.48-11.5,6.1-3.14-.24-5.47-2-7.34-4.49-3-3.93-3.74-8.56-3.92-13.3a59.41,59.41,0,0,1,.13-8.44c.34-3.16,2.46-4.82,5.11-4.47s3.7,2.59,3.64,5.77a93.49,93.49,0,0,0,.69,11.82c.19,1.66.76,3.81,2.73,4.07s3-1.69,3.91-3.27C1017.86,125.3,1018.56,120.54,1018.72,115.41Z"/><path class="cls-5" d="M889.24,65.76a53.77,53.77,0,0,1,0-5.82c.29-2.65,2.13-4.23,4.37-4.09s3.89,1.91,4.05,4.5c.35,5.7.52,11.41,1,17.1,1.41,17.8,2.94,35.59,4.39,53.39.14,1.74.82,2.51,2.63,2.35,1.6-.14,3.22-.09,4.83-.07,2.8,0,4.71,1.64,4.91,4.07a4.3,4.3,0,0,1-4.24,4.7,46.83,46.83,0,0,1-10.39-.46c-3.7-.68-5.56-3.65-6.11-7.22-.69-4.51-1.29-9-1.65-13.59-1.41-18.27-2.72-36.56-4.06-54.84Z"/><path class="cls-5" d="M785.16,78.63c-.81,18.38-1.49,35.09-2.34,51.78a14.15,14.15,0,0,1-1.82,5.82,3.88,3.88,0,0,1-5,1.41,4.49,4.49,0,0,1-2.52-4.43c.52-8.36,1.15-16.73,1.48-25.1.61-15.36,1-30.73,1.53-46.09a11.9,11.9,0,0,1,.37-2.59,4.21,4.21,0,0,1,4.77-3.36,4.33,4.33,0,0,1,3.52,4.5Z"/><path class="cls-6" d="M40.33,55.46c-.1-.85-.63-2.09-3.46-5.22-.38-.43-.81-.9-1.28-1.39,1.39,0,2.65-.11,3.69-.19,3.91-.31,4.56-.87,4.84-1.41a.92.92,0,0,0-.47-1.38c-.66-.35-1.91-.56-5.84-.74-.82,0-1.76-.07-2.77-.1.76-.77,1.46-1.49,2.06-2.13,2.67-2.87,3.26-4,3.32-4.8s-.41-1.08-1.26-1-2.09.63-5.23,3.46c-.39.35-.81.73-1.25,1.15,0-1.25-.1-2.39-.18-3.34-.31-3.92-.87-4.56-1.4-4.84a.93.93,0,0,0-1.39.47c-.35.66-.56,1.91-.74,5.84,0,.69-.06,1.47-.09,2.31-1.08-1-2.1-1.94-2.94-2.66-3-2.54-3.84-2.6-4.42-2.43a.93.93,0,0,0-.65,1.31c.23.72,1,1.76,3.61,4.66l1.7,1.83c-1,0-2,0-2.81,0-3.93.14-5.18.56-5.75,1s-.47,1.06.21,1.59,1.92,1,6.14,1.25l1.62.06c-.91,1-1.72,1.88-2.38,2.64-2.54,3-2.6,3.84-2.42,4.42a.92.92,0,0,0,1.31.65c.72-.22,1.75-1,4.65-3.61.59-.54,1.27-1.17,2-1.84,0,1.16,0,2.24.06,3.17.13,3.93.55,5.18,1,5.75s1.05.47,1.58-.21,1-1.93,1.25-6.14c0-.63.06-1.32.08-2.06.65.64,1.27,1.24,1.82,1.75,2.87,2.68,4,3.27,4.8,3.33S40.44,56.32,40.33,55.46Z"/><path class="cls-5" d="M1042.71,26.28l.22,2.09a10.36,10.36,0,0,0,9.23,9.22l2.08.22-2.08.22a10.37,10.37,0,0,0-9.23,9.23l-.22,2.08-.22-2.08a10.36,10.36,0,0,0-9.22-9.23l-2.09-.22,2.09-.22a10.35,10.35,0,0,0,9.22-9.22Z"/><path class="cls-3" d="M498.91,138.53l-10.42,5.9-5.28,3c-1.72,1-1.72,1-2.69-.82a110.91,110.91,0,0,1-8.84-21.6,136.94,136.94,0,0,1-5.15-28.19c-1.71-22,1-43.27,9.38-63.75a112.5,112.5,0,0,1,4.87-10.15c.5-.94,1-1.16,2-.59Q509,37.14,535.25,51.94c.86.48,1.74.94,2.58,1.45L564.5,68.46c5.2,2.92,10.36,5.91,15.6,8.75a10,10,0,0,1,5.21,5.8V87c-.94,3-3.2,4.67-5.83,6.15q-27.15,15.21-54.25,30.56Z"/><path class="cls-3" d="M461.59,157.13c-4.62-1-7.2-4-8.91-8.32a166.5,166.5,0,0,1-10.11-38.57A180.91,180.91,0,0,1,441,77.11c.82-19.75,4.51-38.92,12.23-57.22,2.8-6.65,9.14-8.89,15.51-5.47,1.4.75,2.75,1.63,4.18,2.33,1.15.56,1.32,1.12.68,2.27a117.46,117.46,0,0,0-11.25,28.92,144.1,144.1,0,0,0-4.15,26.93,150.65,150.65,0,0,0,6.24,54.5,110.73,110.73,0,0,0,9.17,21.6c.59,1,.56,1.62-.59,2.2-2.76,1.37-5.26,3.29-8.35,4Z"/><path class="cls-1" d="M482.68,57.52c-4.53.95-6.09,3-6.07,7.68,0,6.65,0,13.3,0,20h.63c0,6.83-.06,13.66,0,20.48.05,4.33,4.09,7.06,8,5.08a44.46,44.46,0,0,0,9.65-6.4,34.25,34.25,0,0,0,11.3-24c.31-5-.16-10-2.66-14.39C499.43,58.64,491.69,55.62,482.68,57.52Zm5.3,42a26.21,26.21,0,0,1-2.48,1.7c-.12-2.41-.28-4.39-.32-6.38-.17-9.24-.27-18.49-.5-27.73,0-1.6.5-2,2-2,6.83-.18,10.42,3,11.1,10.2C498.68,85,495.27,93.09,488,99.53Z"/><path class="cls-1" d="M554.72,120.32Z"/><path class="cls-1" d="M538.47,104.84a4.09,4.09,0,0,0-4.8-2.63c-1.73.38-3.42.87-5.12,1.34a11.62,11.62,0,0,1-9.69-1.17,4.29,4.29,0,0,1-1.88-2.32c-.79-3.64,1.76-8.08,5.27-9.41,1.65-.62,3.38-1,5.06-1.53A5.14,5.14,0,0,0,531,84.29c-.06-2.08-1.41-3.53-3.9-4.16-.8-.2-1.61-.34-2.41-.54-6.15-1.54-6.84-5.08-3.13-10a7.93,7.93,0,0,1,.83-.91,15.56,15.56,0,0,1,10.3-4.85,3.82,3.82,0,0,0,.63-7.53,10.14,10.14,0,0,0-3.84-.12,23.52,23.52,0,0,0-15.19,9.52c-2.5,3.4-3.94,7.24-3.1,11.6a12.36,12.36,0,0,0,4.58,7.21A19.72,19.72,0,0,0,509,94.91c-1.82,6.47.65,12.08,6.28,15.06,7.07,3.74,14,2.53,21-.15A3.86,3.86,0,0,0,538.47,104.84Z"/></g></g></svg>