<svg xmlns="http://www.w3.org/2000/svg" viewBox="0 0 480.27 205.91"><defs><style>.cls-1{isolation:isolate;}.cls-2{fill:#7abe31;opacity:0.36;}.cls-3{fill:#e6e6e6;}.cls-4{fill:none;stroke:#5da028;stroke-miterlimit:10;stroke-width:6.21px;}.cls-5{fill:#ccc;mix-blend-mode:multiply;opacity:0.3;}.cls-6{fill:#439555;}</style></defs><g class="cls-1"><g id="Capa_2" data-name="Capa 2"><g id="Capa_1-2" data-name="Capa 1"><rect class="cls-2" y="17.32" width="470.57" height="188.59" rx="94.29"/><rect class="cls-3" x="6.59" y="3.11" width="470.57" height="188.59" rx="94.29"/><rect class="cls-4" x="6.59" y="3.11" width="470.57" height="188.59" rx="94.29"/><path class="cls-5" d="M462.45,46.81S474.54,135,402.17,166.69c0,0-40.71,21.23-109.68,23.12l102.9,1.88,26.54-8.44,22.72-14.62,17.19-19.69L472,128.13l5-25.48-1.56-23.17-4.32-15.3Z"/><path class="cls-6" d="M145.19,127.41q-3.9-11.52-8.08-21.08t-10.76-24q-2.28-5-2.85-6.23a6.11,6.11,0,0,1-.57-2.67,4.1,4.1,0,0,1,1.47-2.9,4.63,4.63,0,0,1,3.28-1.43,3.64,3.64,0,0,1,3,1.81l4.57,10.47q9.6,22.17,13.7,32.26l1.71-6.66q2.1-8.76,4.38-17.32,6.47-23.41,12.75-23.41a3,3,0,0,1,1.95.66,2.23,2.23,0,0,1,.81,1.81A7.94,7.94,0,0,1,169.41,72a52.09,52.09,0,0,0-3,7.9c-1.2,3.81-1.95,6-2.23,6.71s-1.81,6-4.57,16-5.12,17.89-7.09,23.6a5.08,5.08,0,0,1-4.8,3.53C146.6,129.79,145.76,129,145.19,127.41Z"/><path class="cls-6" d="M191.06,84.87q6.85,0,11.28,6.57a27.47,27.47,0,0,1,4.42,15.74,26.66,26.66,0,0,1-4.52,15.66,14,14,0,0,1-12,6.47q-7.47,0-12-6.61A25.34,25.34,0,0,1,173.64,108q0-10.36,4.19-16.55Q182.3,84.87,191.06,84.87Zm-1.14,7.8q-4,0-6.57,4.19a16.67,16.67,0,0,0-2.57,8.85q0,7.23,2.86,11c1.9,2.54,4.06,3.8,6.47,3.8q6.46,0,8.28-5.61a25,25,0,0,0,.76-6.66Q199.15,92.68,189.92,92.67Z"/><path class="cls-6" d="M212.33,67.6c.16-2.38.54-3.93,1.14-4.66a3.55,3.55,0,0,1,2.9-1.1q4.09,0,4.09,3.33,0,2.56-.42,13.42T219.61,98a115.07,115.07,0,0,0,.66,13.8q1.14,9.14,3.24,9.14c1.39,0,2.44-1,3.14-3a5.41,5.41,0,0,1,1.52-2,4,4,0,0,1,2.67-.9q3.33,0,3.33,5.61,0,3-3.29,6c-2.18,2-4.36,3-6.51,3a10.7,10.7,0,0,1-5.19-1.09,8.06,8.06,0,0,1-3.14-3.29,27.57,27.57,0,0,1-1.9-4.23,21.5,21.5,0,0,1-1-5q-.57-4.76-.81-15.27t-.24-20.08Q212.09,71.16,212.33,67.6Z"/><path class="cls-6" d="M268.61,84.3a2.32,2.32,0,0,1,2,.9,3.29,3.29,0,0,1,.67,2l-.1,1q-4,10.17-5.9,16.55-1.23,4.49-1.85,6.66T261.38,119c-.95,3.68-1.59,6.06-1.9,7.14a4.7,4.7,0,0,1-4.66,3.23c-1.08,0-1.85-.69-2.29-2.09a161.22,161.22,0,0,0-8.94-21.51q-5.91-12-6.71-13.74a7.77,7.77,0,0,1-.81-3.19,4.52,4.52,0,0,1,4.19-4.1A3.32,3.32,0,0,1,243,86.49c.69,1.39,2.68,5.3,5.94,11.7a142.69,142.69,0,0,1,6.9,15.13c.07-.38.29-1.17.67-2.38q4.85-16.84,7.9-24.07A4.8,4.8,0,0,1,268.61,84.3Z"/><path class="cls-6" d="M289.64,85.16a17.4,17.4,0,0,1,9.61,3c3.05,2,4.57,4.39,4.57,7.27s-1.24,5.68-3.71,8.38a15.85,15.85,0,0,1-9.9,4.9,62.12,62.12,0,0,1-8,.38q1,8.08,4.09,10.66a3.3,3.3,0,0,0,2.57,1,13.93,13.93,0,0,0,9.9-3.75c2.66-2.51,4.57-3.76,5.71-3.76a4.29,4.29,0,0,1,2.28,1.42,3.92,3.92,0,0,1,1.52,2.67q0,2.48-6,7.14a23.64,23.64,0,0,1-6.42,3.66,19.33,19.33,0,0,1-7,1.47q-8.28,0-12.18-10.65a40.73,40.73,0,0,1-2.47-14.47,24.4,24.4,0,0,1,3.71-13.61Q281.65,85.16,289.64,85.16Zm.48,6.56c-2.41,0-4.47,1.37-6.19,4.09q-.94,1.43-1.8,6.47,13.32,0,13.32-6.56Q295.45,91.72,290.12,91.72Z"/><path class="cls-6" d="M326.09,115.32l.09,9.8a4.19,4.19,0,0,1-1.57,3.14,4.65,4.65,0,0,1-3.09,1.43q-2.19,0-2.76-3.43-.09-.75-.76-13.94t-2.57-20.69a32.33,32.33,0,0,1-.86-4.29q0-3.14,3.81-3.14A3.08,3.08,0,0,1,321,85.44,6,6,0,0,1,322.14,88c.16.86.3,2,.43,3.48s.22,2.38.28,2.76a14.52,14.52,0,0,1,6-7.14,16.74,16.74,0,0,1,8.75-2.38c5.2,0,7.81,1.33,7.81,4A4,4,0,0,1,344,91.86a4.72,4.72,0,0,1-3.19,1.19q-8.08,0-11.42,5.14T326.09,115.32Z"/></g></g></g></svg>